<?xml version="1.0" encoding="utf-8"?>
<!-- Generator: Adobe Illustrator 25.3.1, SVG Export Plug-In . SVG Version: 6.00 Build 0)  -->
<svg version="1.1" xmlns="http://www.w3.org/2000/svg" xmlns:xlink="http://www.w3.org/1999/xlink" x="0px" y="0px"
	 viewBox="0 0 128 128" enable-background="new 0 0 128 128" xml:space="preserve">
<g id="Слой_4">
</g>
<g id="Слой_1">
	<g>
		<linearGradient id="SVGID_1_" gradientUnits="userSpaceOnUse" x1="120.561" y1="49.5116" x2="-12.0401" y2="88.228">
			<stop  offset="0" style="stop-color:#7BCDF4"/>
			<stop  offset="0.032" style="stop-color:#A2C3E7"/>
			<stop  offset="0.0712" style="stop-color:#C0B3D6"/>
			<stop  offset="0.1114" style="stop-color:#D39FC6"/>
			<stop  offset="0.152" style="stop-color:#E08DB8"/>
			<stop  offset="0.1933" style="stop-color:#E87EAD"/>
			<stop  offset="0.2357" style="stop-color:#EC74A6"/>
			<stop  offset="0.2809" style="stop-color:#ED70A4"/>
			<stop  offset="0.6685" style="stop-color:#F39472"/>
			<stop  offset="0.8876" style="stop-color:#FFD670"/>
			<stop  offset="1" style="stop-color:#E4E46A"/>
		</linearGradient>
		<path fill="url(#SVGID_1_)" d="M125.6,37.52c0-0.06-0.02-0.11-0.03-0.17c-0.1-0.3-0.31-0.57-0.64-0.72
			c-0.1-0.05-0.21-0.08-0.33-0.1L16.19,17.98c-0.17-0.04-0.35-0.06-0.53-0.08c-0.18-0.02-0.36-0.04-0.55-0.05
			c-0.7-0.05-1.41-0.04-2.12-0.05c-0.27,0-0.54,0.01-0.8,0.03c-0.26,0.02-0.52,0.05-0.78,0.09c-0.19,0.03-0.38,0.06-0.56,0.1
			c-0.1,0.02-0.21,0.04-0.31,0.07c-0.19,0.04-0.38,0.09-0.57,0.15c-0.04,0.01-0.09,0.02-0.13,0.04c-0.22,0.07-0.44,0.14-0.66,0.23
			c-0.14,0.05-0.27,0.1-0.4,0.17c-0.13,0.05-0.26,0.11-0.39,0.17c-0.42,0.2-0.83,0.43-1.22,0.69c-0.32,0.21-0.63,0.44-0.93,0.69
			c-0.13,0.1-0.26,0.21-0.38,0.33c-0.13,0.11-0.25,0.23-0.37,0.35s-0.24,0.24-0.35,0.37c-0.23,0.25-0.45,0.51-0.65,0.78
			c-0.1,0.14-0.2,0.27-0.3,0.42c-0.09,0.14-0.18,0.28-0.27,0.43c-0.31,0.5-0.58,1.03-0.79,1.58c-0.07,0.18-0.14,0.36-0.2,0.55
			c-0.15,0.44-0.27,0.89-0.35,1.36c-0.05,0.21-0.08,0.42-0.11,0.63c-0.03,0.22-0.05,0.43-0.07,0.64v0.06
			c-0.01,0.22-0.02,0.45-0.02,0.67v42.55c0,4.83,2.82,9.22,7.22,11.24l80.61,36.92c7.34,3.37,15.7-2,15.7-10.07v-51.6
			c0-0.29,0.01-0.58,0.02-0.87c0.01-0.15,0.02-0.29,0.03-0.44c0.01-0.19,0.03-0.39,0.05-0.58c0.02-0.25,0.05-0.51,0.09-0.76
			c0.02-0.12,0.04-0.24,0.06-0.36c0.03-0.24,0.08-0.48,0.13-0.71c0.04-0.21,0.08-0.41,0.13-0.6c0.05-0.24,0.12-0.47,0.18-0.7
			c0.06-0.21,0.12-0.41,0.19-0.6c0.06-0.2,0.12-0.4,0.19-0.59c0.17-0.49,0.37-0.97,0.58-1.43c0.07-0.16,0.15-0.32,0.23-0.48
			c0.12-0.25,0.24-0.49,0.37-0.73c0.14-0.25,0.28-0.49,0.43-0.73c0.71-1.19,1.56-2.28,2.53-3.28c0.13-0.14,0.27-0.28,0.41-0.41
			c0.99-0.96,2.09-1.81,3.27-2.53c0.21-0.13,0.42-0.25,0.64-0.37c0.27-0.15,0.54-0.29,0.82-0.43c0.24-0.12,0.49-0.24,0.74-0.34
			c0.18-0.08,0.36-0.16,0.54-0.23c0.21-0.08,0.42-0.16,0.63-0.24c0.2-0.07,0.4-0.14,0.61-0.2c0.38-0.12,0.77-0.23,1.16-0.33
			c0.19-0.05,0.39-0.09,0.59-0.13c0.21-0.05,0.42-0.09,0.63-0.12c0.19-0.04,0.39-0.07,0.58-0.1c0.02,0,0.04-0.01,0.06-0.01
			c0.51-0.07,1.03-0.12,1.55-0.15c0.35-0.02,0.69-0.03,1.04-0.03c0.8,0,1.23-0.62,1.23-1.24C125.62,37.65,125.61,37.59,125.6,37.52z
			 M88.03,46.51c-1.22,0.95-2.92,1.43-5.1,1.43h-4.35L55.53,86.77c-1.95,3.27-4.23,4.91-6.86,4.91c-3.72,0-5.58-2.34-5.58-7.01
			l-0.6-25.22c0-4.58-0.4-7.66-1.18-9.24c-0.79-1.59-2.31-2.38-4.56-2.38c-2.07,0-4.1,1.06-6.09,3.2c-1.98,2.14-2.98,4.32-2.98,6.54
			c0,1.83,0.57,3.28,1.71,4.37c1.14,1.09,2.65,1.63,4.55,1.63c0.45,0,0.9-0.01,1.35-0.04c0.53-0.02,0.84-0.04,0.94-0.04
			c3.02,0,4.53,1.27,4.53,3.79c0,1.67-0.85,3.07-2.56,4.18c-1.72,1.11-3.87,1.67-6.47,1.67c-4.12,0-7.5-1.38-10.14-4.15
			c-2.64-2.76-3.95-6.27-3.95-10.55c0-5.14,2.1-9.76,6.31-13.85c4.21-4.08,8.98-6.13,14.3-6.13c5.15,0,8.96,1.77,11.43,5.29
			c0.93,1.32,1.57,3.12,1.94,5.4c0.36,2.27,0.54,5.71,0.54,10.31v14.84l18.18-30.92l0.94-1.62c0.62-1.07,1.29-1.8,2.02-2.17
			c0.72-0.38,1.82-0.56,3.3-0.56l1.46-0.04h6.6c3.47,0,5.21,1.2,5.21,3.6C89.87,44.25,89.25,45.56,88.03,46.51z"/>
		<linearGradient id="SVGID_2_" gradientUnits="userSpaceOnUse" x1="79.728" y1="25.4331" x2="9.5501" y2="144.3973">
			<stop  offset="0" style="stop-color:#7BCDF4"/>
			<stop  offset="0.027" style="stop-color:#A2C3E7"/>
			<stop  offset="0.0602" style="stop-color:#C0B3D6"/>
			<stop  offset="0.0941" style="stop-color:#D39FC6"/>
			<stop  offset="0.1285" style="stop-color:#E08DB8"/>
			<stop  offset="0.1634" style="stop-color:#E87EAD"/>
			<stop  offset="0.1993" style="stop-color:#EC74A6"/>
			<stop  offset="0.2375" style="stop-color:#ED70A4"/>
			<stop  offset="0.6329" style="stop-color:#F39472"/>
			<stop  offset="0.8525" style="stop-color:#FFD670"/>
			<stop  offset="0.9479" style="stop-color:#E4E46A"/>
		</linearGradient>
		<path opacity="0.5" fill="url(#SVGID_2_)" d="M125.6,37.52c0-0.06-0.02-0.11-0.03-0.17c-0.1-0.3-0.31-0.57-0.64-0.72
			c-0.1-0.05-0.21-0.08-0.33-0.1L16.19,17.98c-0.17-0.04-0.35-0.06-0.53-0.08c-0.18-0.02-0.36-0.04-0.55-0.05
			c-0.7-0.05-1.41-0.04-2.12-0.05c-0.27,0-0.54,0.01-0.8,0.03c-0.26,0.02-0.52,0.05-0.78,0.09c-0.19,0.03-0.38,0.06-0.56,0.1
			c-0.1,0.02-0.21,0.04-0.31,0.07c-0.19,0.04-0.38,0.09-0.57,0.15c-0.04,0.01-0.09,0.02-0.13,0.04c-0.22,0.07-0.44,0.14-0.66,0.23
			c-0.14,0.05-0.27,0.1-0.4,0.17c-0.13,0.05-0.26,0.11-0.39,0.17c-0.42,0.2-0.83,0.43-1.22,0.69c-0.32,0.21-0.63,0.44-0.93,0.69
			c-0.13,0.1-0.26,0.21-0.38,0.33c-0.13,0.11-0.25,0.23-0.37,0.35s-0.24,0.24-0.35,0.37c-0.23,0.25-0.45,0.51-0.65,0.78
			c-0.1,0.14-0.2,0.27-0.3,0.42c-0.09,0.14-0.18,0.28-0.27,0.43c-0.31,0.5-0.58,1.03-0.79,1.58c-0.07,0.18-0.14,0.36-0.2,0.55
			c-0.15,0.44-0.27,0.89-0.35,1.36c-0.05,0.21-0.08,0.42-0.11,0.63c-0.03,0.22-0.05,0.43-0.07,0.64v0.06
			c-0.01,0.22-0.02,0.45-0.02,0.67v42.55c0,4.83,2.82,9.22,7.22,11.24l80.61,36.92c7.34,3.37,15.7-2,15.7-10.07v-51.6
			c0-0.29,0.01-0.58,0.02-0.87c0.01-0.15,0.02-0.29,0.03-0.44c0.01-0.19,0.03-0.39,0.05-0.58c0.02-0.25,0.05-0.51,0.09-0.76
			c0.02-0.12,0.04-0.24,0.06-0.36c0.03-0.24,0.08-0.48,0.13-0.71c0.04-0.21,0.08-0.41,0.13-0.6c0.05-0.24,0.12-0.47,0.18-0.7
			c0.06-0.21,0.12-0.41,0.19-0.6c0.06-0.2,0.12-0.4,0.19-0.59c0.17-0.49,0.37-0.97,0.58-1.43c0.07-0.16,0.15-0.32,0.23-0.48
			c0.12-0.25,0.24-0.49,0.37-0.73c0.14-0.25,0.28-0.49,0.43-0.73c0.71-1.19,1.56-2.28,2.53-3.28c0.13-0.14,0.27-0.28,0.41-0.41
			c0.99-0.96,2.09-1.81,3.27-2.53c0.21-0.13,0.42-0.25,0.64-0.37c0.27-0.15,0.54-0.29,0.82-0.43c0.24-0.12,0.49-0.24,0.74-0.34
			c0.18-0.08,0.36-0.16,0.54-0.23c0.21-0.08,0.42-0.16,0.63-0.24c0.2-0.07,0.4-0.14,0.61-0.2c0.38-0.12,0.77-0.23,1.16-0.33
			c0.19-0.05,0.39-0.09,0.59-0.13c0.21-0.05,0.42-0.09,0.63-0.12c0.19-0.04,0.39-0.07,0.58-0.1c0.02,0,0.04-0.01,0.06-0.01
			c0.51-0.07,1.03-0.12,1.55-0.15c0.35-0.02,0.69-0.03,1.04-0.03c0.8,0,1.23-0.62,1.23-1.24C125.62,37.65,125.61,37.59,125.6,37.52z
			 M88.03,46.51c-1.22,0.95-2.92,1.43-5.1,1.43h-4.35L55.53,86.77c-1.95,3.27-4.23,4.91-6.86,4.91c-3.72,0-5.58-2.34-5.58-7.01
			l-0.6-25.22c0-4.58-0.4-7.66-1.18-9.24c-0.79-1.59-2.31-2.38-4.56-2.38c-2.07,0-4.1,1.06-6.09,3.2c-1.98,2.14-2.98,4.32-2.98,6.54
			c0,1.83,0.57,3.28,1.71,4.37c1.14,1.09,2.65,1.63,4.55,1.63c0.45,0,0.9-0.01,1.35-0.04c0.53-0.02,0.84-0.04,0.94-0.04
			c3.02,0,4.53,1.27,4.53,3.79c0,1.67-0.85,3.07-2.56,4.18c-1.72,1.11-3.87,1.67-6.47,1.67c-4.12,0-7.5-1.38-10.14-4.15
			c-2.64-2.76-3.95-6.27-3.95-10.55c0-5.14,2.1-9.76,6.31-13.85c4.21-4.08,8.98-6.13,14.3-6.13c5.15,0,8.96,1.77,11.43,5.29
			c0.93,1.32,1.57,3.12,1.94,5.4c0.36,2.27,0.54,5.71,0.54,10.31v14.84l18.18-30.92l0.94-1.62c0.62-1.07,1.29-1.8,2.02-2.17
			c0.72-0.38,1.82-0.56,3.3-0.56l1.46-0.04h6.6c3.47,0,5.21,1.2,5.21,3.6C89.87,44.25,89.25,45.56,88.03,46.51z"/>
		<linearGradient id="SVGID_3_" gradientUnits="userSpaceOnUse" x1="120.6559" y1="68.6228" x2="-17.4764" y2="69.3339">
			<stop  offset="0.0179" style="stop-color:#7BCDF4"/>
			<stop  offset="0.0478" style="stop-color:#A2C3E7"/>
			<stop  offset="0.0845" style="stop-color:#C0B3D6"/>
			<stop  offset="0.1221" style="stop-color:#D39FC6"/>
			<stop  offset="0.1602" style="stop-color:#E08DB8"/>
			<stop  offset="0.1989" style="stop-color:#E87EAD"/>
			<stop  offset="0.2386" style="stop-color:#EC74A6"/>
			<stop  offset="0.2809" style="stop-color:#ED70A4"/>
			<stop  offset="0.6885" style="stop-color:#F39472"/>
			<stop  offset="0.9165" style="stop-color:#FFD670"/>
			<stop  offset="1" style="stop-color:#E4E46A"/>
		</linearGradient>
		<path opacity="0.4" fill="url(#SVGID_3_)" d="M125.6,37.52c0-0.06-0.02-0.11-0.03-0.17c-0.1-0.3-0.31-0.57-0.64-0.72
			c-0.1-0.05-0.21-0.08-0.33-0.1L16.19,17.98c-0.17-0.04-0.35-0.06-0.53-0.08c-0.18-0.02-0.36-0.04-0.55-0.05
			c-0.7-0.05-1.41-0.04-2.12-0.05c-0.27,0-0.54,0.01-0.8,0.03c-0.26,0.02-0.52,0.05-0.78,0.09c-0.19,0.03-0.38,0.06-0.56,0.1
			c-0.1,0.02-0.21,0.04-0.31,0.07c-0.19,0.04-0.38,0.09-0.57,0.15c-0.04,0.01-0.09,0.02-0.13,0.04c-0.22,0.07-0.44,0.14-0.66,0.23
			c-0.14,0.05-0.27,0.1-0.4,0.17c-0.13,0.05-0.26,0.11-0.39,0.17c-0.42,0.2-0.83,0.43-1.22,0.69c-0.32,0.21-0.63,0.44-0.93,0.69
			c-0.13,0.1-0.26,0.21-0.38,0.33c-0.13,0.11-0.25,0.23-0.37,0.35s-0.24,0.24-0.35,0.37c-0.23,0.25-0.45,0.51-0.65,0.78
			c-0.1,0.14-0.2,0.27-0.3,0.42c-0.09,0.14-0.18,0.28-0.27,0.43c-0.31,0.5-0.58,1.03-0.79,1.58c-0.07,0.18-0.14,0.36-0.2,0.55
			c-0.15,0.44-0.27,0.89-0.35,1.36c-0.05,0.21-0.08,0.42-0.11,0.63c-0.03,0.22-0.05,0.43-0.07,0.64v0.06
			c-0.01,0.22-0.02,0.45-0.02,0.67v42.55c0,4.83,2.82,9.22,7.22,11.24l80.61,36.92c7.34,3.37,15.7-2,15.7-10.07v-51.6
			c0-0.29,0.01-0.58,0.02-0.87c0.01-0.15,0.02-0.29,0.03-0.44c0.01-0.19,0.03-0.39,0.05-0.58c0.02-0.25,0.05-0.51,0.09-0.76
			c0.02-0.12,0.03-0.24,0.06-0.36c0.03-0.24,0.08-0.48,0.13-0.71c0.04-0.21,0.08-0.41,0.13-0.6c0.06-0.24,0.12-0.47,0.18-0.7
			c0.06-0.21,0.12-0.41,0.19-0.6c0.05-0.2,0.12-0.39,0.19-0.59c0.17-0.49,0.37-0.97,0.58-1.43c0.07-0.16,0.15-0.32,0.23-0.48
			c0.12-0.25,0.24-0.49,0.37-0.73c0.14-0.25,0.28-0.49,0.43-0.73c0.71-1.19,1.56-2.28,2.53-3.28c0.13-0.14,0.27-0.28,0.41-0.41
			c0.99-0.96,2.09-1.81,3.27-2.53c0.21-0.13,0.42-0.25,0.64-0.37c0.27-0.15,0.54-0.29,0.82-0.43c0.24-0.12,0.49-0.23,0.74-0.34
			c0.18-0.08,0.36-0.16,0.54-0.23c0.21-0.08,0.42-0.16,0.63-0.24c0.2-0.07,0.4-0.14,0.61-0.2c0.38-0.12,0.77-0.23,1.16-0.33
			c0.2-0.05,0.39-0.09,0.59-0.13c0.21-0.05,0.42-0.09,0.63-0.12c0.19-0.04,0.39-0.07,0.58-0.1c0.02,0,0.04-0.01,0.06-0.01
			c0.51-0.07,1.03-0.12,1.55-0.15c0.35-0.02,0.69-0.03,1.04-0.03c0.8,0,1.23-0.62,1.23-1.24C125.62,37.65,125.61,37.59,125.6,37.52z
			 M88.03,46.51c-1.22,0.95-2.92,1.43-5.1,1.43h-4.35L55.53,86.77c-1.95,3.27-4.23,4.91-6.86,4.91c-3.72,0-5.58-2.34-5.58-7.01
			l-0.6-25.22c0-4.58-0.4-7.66-1.18-9.24c-0.79-1.59-2.31-2.38-4.56-2.38c-2.07,0-4.1,1.06-6.09,3.2c-1.98,2.14-2.98,4.32-2.98,6.54
			c0,1.83,0.57,3.28,1.71,4.37c1.14,1.09,2.65,1.63,4.55,1.63c0.45,0,0.9-0.01,1.35-0.04c0.53-0.02,0.84-0.04,0.94-0.04
			c3.02,0,4.53,1.27,4.53,3.79c0,1.67-0.85,3.07-2.56,4.18c-1.72,1.11-3.87,1.67-6.47,1.67c-4.12,0-7.5-1.38-10.14-4.15
			c-2.64-2.76-3.95-6.27-3.95-10.55c0-5.14,2.1-9.76,6.31-13.85c4.21-4.08,8.98-6.13,14.3-6.13c5.15,0,8.96,1.77,11.43,5.29
			c0.93,1.32,1.57,3.12,1.94,5.4c0.36,2.27,0.54,5.71,0.54,10.31v14.84l18.18-30.92l0.94-1.62c0.62-1.07,1.29-1.8,2.02-2.17
			c0.72-0.38,1.82-0.56,3.3-0.56l1.46-0.04h6.6c3.47,0,5.21,1.2,5.21,3.6C89.87,44.25,89.25,45.56,88.03,46.51z"/>
		<path display="none" d="M89.87,42.58c0,1.67-0.62,2.98-1.84,3.93c-1.22,0.95-2.92,1.43-5.1,1.43h-4.35L55.53,86.77
			c-1.95,3.27-4.23,4.91-6.86,4.91c-3.72,0-5.58-2.34-5.58-7.01l-0.6-25.22c0-4.58-0.4-7.66-1.18-9.24
			c-0.79-1.59-2.31-2.38-4.56-2.38c-2.07,0-4.1,1.06-6.09,3.2c-1.98,2.14-2.98,4.32-2.98,6.54c0,1.83,0.57,3.28,1.71,4.37
			c1.14,1.09,2.65,1.63,4.55,1.63c0.45,0,0.9-0.01,1.35-0.04c0.53-0.02,0.84-0.04,0.94-0.04c3.02,0,4.53,1.27,4.53,3.79
			c0,1.67-0.85,3.07-2.56,4.18c-1.72,1.11-3.87,1.67-6.47,1.67c-4.12,0-7.5-1.38-10.14-4.15c-2.64-2.76-3.95-6.27-3.95-10.55
			c0-5.14,2.1-9.76,6.31-13.85c4.21-4.08,8.98-6.13,14.3-6.13c5.15,0,8.96,1.77,11.43,5.29c0.93,1.32,1.57,3.12,1.94,5.4
			c0.36,2.27,0.54,5.71,0.54,10.31v14.84l18.18-30.92l0.94-1.62c0.62-1.07,1.29-1.8,2.02-2.17c0.72-0.38,1.82-0.56,3.3-0.56
			l1.46-0.04h6.6C88.13,38.98,89.87,40.18,89.87,42.58z"/>
		<path display="none" d="M78.58,47.94L55.53,86.77c-1.95,3.27-4.24,4.91-6.86,4.91c-3.72,0-5.58-2.34-5.58-7.01l-0.6-25.22
			c0-4.57-0.39-7.65-1.18-9.24c-0.79-1.59-2.31-2.38-4.55-2.38c-2.07,0-4.1,1.07-6.09,3.2c-1.99,2.14-2.98,4.32-2.98,6.54
			c0,1.82,0.57,3.28,1.71,4.37c1.14,1.09,2.66,1.63,4.55,1.63c0.45,0,0.9-0.01,1.35-0.04c0.52-0.02,0.84-0.04,0.94-0.04
			c3.02,0,4.53,1.26,4.53,3.79c0,1.68-0.86,3.07-2.57,4.18c-1.71,1.11-3.87,1.67-6.47,1.67c-4.12,0-7.5-1.38-10.14-4.14
			c-2.64-2.76-3.95-6.28-3.95-10.55c0-5.15,2.11-9.76,6.32-13.85s8.98-6.13,14.3-6.13c5.15,0,8.96,1.76,11.43,5.29
			c0.92,1.32,1.57,3.12,1.93,5.4c0.36,2.27,0.54,5.71,0.54,10.31v14.84l18.18-30.92l0.94-1.61c0.62-1.07,1.3-1.8,2.02-2.17
			c0.72-0.37,1.82-0.56,3.3-0.56l1.46-0.04h6.6c3.47,0,5.21,1.2,5.21,3.6c0,1.67-0.61,2.99-1.84,3.94c-1.23,0.95-2.92,1.42-5.1,1.42
			H78.58z"/>
	</g>
</g>
<g id="Слой_3" display="none">
	
		<rect x="225.23" y="18.27" display="inline" fill="#7BCDF4" stroke="#000000" stroke-width="0.25" stroke-miterlimit="10" width="13.24" height="13.24"/>
	<text transform="matrix(1 0 0 1 132.7418 49.2615)" display="inline" font-family="'ArialRoundedMTBold'" font-size="19.1046px">Voldemort</text>
	<text transform="matrix(1 0 0 1 132.6271 67.0375)" display="inline" font-family="'TrebuchetMS'" font-size="19.1046px">Voldemort</text>
	<text transform="matrix(1 0 0 1 133.1048 31.1287)" display="inline" font-family="'HarlowSolid'" font-size="19.1046px">Voldemort</text>
	<text transform="matrix(1 0 0 1 132.7423 12.7847)" display="inline" font-family="'Perpetua'" font-size="19.1046px">Voldemort</text>
</g>
<g id="Слой_2" display="none">
	<g display="inline">
		<path fill="#E4E46A" d="M11.14-4.45L11.14-4.45c-3.59,0-6.5-2.91-6.5-6.5v0c0-3.59,2.91-6.5,6.5-6.5h0c3.59,0,6.5,2.91,6.5,6.5v0
			C17.64-7.36,14.73-4.45,11.14-4.45z"/>
		<path fill="#E4E46A" d="M27.04-4.45L27.04-4.45c-3.59,0-6.5-2.91-6.5-6.5v0c0-3.59,2.91-6.5,6.5-6.5h0c3.59,0,6.5,2.91,6.5,6.5v0
			C33.54-7.36,30.63-4.45,27.04-4.45z"/>
		<path fill="#E4E46A" d="M42.94-4.45L42.94-4.45c-3.59,0-6.5-2.91-6.5-6.5v0c0-3.59,2.91-6.5,6.5-6.5h0c3.59,0,6.5,2.91,6.5,6.5v0
			C49.43-7.36,46.52-4.45,42.94-4.45z"/>
		<path fill="#E4E46A" d="M58.83-4.45L58.83-4.45c-3.59,0-6.5-2.91-6.5-6.5v0c0-3.59,2.91-6.5,6.5-6.5h0c3.59,0,6.5,2.91,6.5,6.5v0
			C65.33-7.36,62.42-4.45,58.83-4.45z"/>
		<path fill="#E4E46A" d="M74.73-4.45L74.73-4.45c-3.59,0-6.5-2.91-6.5-6.5v0c0-3.59,2.91-6.5,6.5-6.5h0c3.59,0,6.5,2.91,6.5,6.5v0
			C81.23-7.36,78.32-4.45,74.73-4.45z"/>
	</g>
	<g display="inline">
		<path fill="#7BCDF4" stroke="#000000" stroke-width="0.25" stroke-miterlimit="10" d="M11.14-4.45L11.14-4.45
			c-3.59,0-6.5-2.91-6.5-6.5v0c0-3.59,2.91-6.5,6.5-6.5h0c3.59,0,6.5,2.91,6.5,6.5v0C17.64-7.36,14.73-4.45,11.14-4.45z"/>
		<path fill="#ED70A4" stroke="#000000" stroke-width="0.25" stroke-miterlimit="10" d="M27.04-4.45L27.04-4.45
			c-3.59,0-6.5-2.91-6.5-6.5v0c0-3.59,2.91-6.5,6.5-6.5h0c3.59,0,6.5,2.91,6.5,6.5v0C33.54-7.36,30.63-4.45,27.04-4.45z"/>
		<path fill="#F39472" stroke="#000000" stroke-width="0.25" stroke-miterlimit="10" d="M42.94-4.45L42.94-4.45
			c-3.59,0-6.5-2.91-6.5-6.5v0c0-3.59,2.91-6.5,6.5-6.5h0c3.59,0,6.5,2.91,6.5,6.5v0C49.43-7.36,46.52-4.45,42.94-4.45z"/>
		<path fill="#FFD670" stroke="#000000" stroke-width="0.25" stroke-miterlimit="10" d="M58.83-4.45L58.83-4.45
			c-3.59,0-6.5-2.91-6.5-6.5v0c0-3.59,2.91-6.5,6.5-6.5h0c3.59,0,6.5,2.91,6.5,6.5v0C65.33-7.36,62.42-4.45,58.83-4.45z"/>
		<path fill="#E4E46A" stroke="#000000" stroke-width="0.25" stroke-miterlimit="10" d="M74.73-4.45L74.73-4.45
			c-3.59,0-6.5-2.91-6.5-6.5v0c0-3.59,2.91-6.5,6.5-6.5h0c3.59,0,6.5,2.91,6.5,6.5v0C81.23-7.36,78.32-4.45,74.73-4.45z"/>
	</g>
	<g display="inline">
		<path fill="none" stroke="#000000" stroke-width="0.25" stroke-miterlimit="10" d="M11.14-4.45L11.14-4.45
			c-3.59,0-6.5-2.91-6.5-6.5v0c0-3.59,2.91-6.5,6.5-6.5h0c3.59,0,6.5,2.91,6.5,6.5v0C17.64-7.36,14.73-4.45,11.14-4.45z"/>
		<path fill="none" stroke="#000000" stroke-width="0.25" stroke-miterlimit="10" d="M27.04-4.45L27.04-4.45
			c-3.59,0-6.5-2.91-6.5-6.5v0c0-3.59,2.91-6.5,6.5-6.5h0c3.59,0,6.5,2.91,6.5,6.5v0C33.54-7.36,30.63-4.45,27.04-4.45z"/>
		<path fill="none" stroke="#000000" stroke-width="0.25" stroke-miterlimit="10" d="M42.94-4.45L42.94-4.45
			c-3.59,0-6.5-2.91-6.5-6.5v0c0-3.59,2.91-6.5,6.5-6.5h0c3.59,0,6.5,2.91,6.5,6.5v0C49.43-7.36,46.52-4.45,42.94-4.45z"/>
		<path fill="none" stroke="#000000" stroke-width="0.25" stroke-miterlimit="10" d="M58.83-4.45L58.83-4.45
			c-3.59,0-6.5-2.91-6.5-6.5v0c0-3.59,2.91-6.5,6.5-6.5h0c3.59,0,6.5,2.91,6.5,6.5v0C65.33-7.36,62.42-4.45,58.83-4.45z"/>
		<path fill="none" stroke="#000000" stroke-width="0.25" stroke-miterlimit="10" d="M74.73-4.45L74.73-4.45
			c-3.59,0-6.5-2.91-6.5-6.5v0c0-3.59,2.91-6.5,6.5-6.5h0c3.59,0,6.5,2.91,6.5,6.5v0C81.23-7.36,78.32-4.45,74.73-4.45z"/>
	</g>
</g>
</svg>
